<svg width="99" height="22" viewBox="0 0 99 22" fill="none" xmlns="http://www.w3.org/2000/svg">
<path d="M8.93878 0.745812C9.09142 0.622403 9.29163 0.574576 9.48356 0.615669L18.5829 2.56408C18.8826 2.62826 19.0967 2.89314 19.0967 3.19968V18.7997C19.0967 19.1061 18.8826 19.371 18.583 19.4352L9.48377 21.3869C9.29182 21.4279 9.09155 21.3802 8.93886 21.2567C8.78619 21.1334 8.69746 20.9476 8.69746 20.7513L8.69827 1.25127C8.69828 1.05499 8.78615 0.869221 8.93878 0.745812ZM13.2499 10.9997C13.2499 10.4612 12.8133 10.0247 12.2749 10.0247C11.7364 10.0247 11.2999 10.4612 11.2999 10.9997C11.2999 11.5382 11.7364 11.9747 12.2749 11.9747C12.8133 11.9747 13.2499 11.5382 13.2499 10.9997Z" fill="#61C0CD"/>
<path d="M7.39985 1.99999H1.54747C1.18847 1.99999 0.897469 2.291 0.897469 2.64999V19.5439C0.897469 19.9028 1.18847 20.1939 1.54747 20.1939H7.39985V1.99999Z" fill="#3C2F71"/>
<path d="M28.1 18V3.24999H32.14V16.81L30.32 14.79H37.4V18H28.1Z" fill="#3C2F71"/>
<path d="M44.5647 18.25C43.3647 18.25 42.308 18.0167 41.3947 17.55C40.488 17.0833 39.778 16.4333 39.2647 15.6C38.758 14.7667 38.5047 13.8 38.5047 12.7C38.5047 11.6 38.758 10.6333 39.2647 9.79999C39.778 8.96666 40.488 8.31999 41.3947 7.85999C42.308 7.39332 43.3647 7.15999 44.5647 7.15999C45.7647 7.15999 46.818 7.39332 47.7247 7.85999C48.638 8.31999 49.348 8.96666 49.8547 9.79999C50.368 10.6333 50.6247 11.6 50.6247 12.7C50.6247 13.8 50.368 14.7667 49.8547 15.6C49.348 16.4333 48.638 17.0833 47.7247 17.55C46.818 18.0167 45.7647 18.25 44.5647 18.25ZM44.5647 15.2C44.978 15.2 45.3314 15.0967 45.6247 14.89C45.918 14.6833 46.1414 14.3933 46.2947 14.02C46.4547 13.6467 46.5347 13.2067 46.5347 12.7C46.5347 12.1933 46.4547 11.7567 46.2947 11.39C46.1414 11.0167 45.918 10.73 45.6247 10.53C45.3314 10.3233 44.978 10.22 44.5647 10.22C44.158 10.22 43.8047 10.3233 43.5047 10.53C43.2114 10.73 42.9847 11.0167 42.8247 11.39C42.6714 11.7567 42.5947 12.1933 42.5947 12.7C42.5947 13.2067 42.6714 13.6467 42.8247 14.02C42.9847 14.3933 43.2114 14.6833 43.5047 14.89C43.8047 15.0967 44.158 15.2 44.5647 15.2Z" fill="#3C2F71"/>
<path d="M57.642 18.26C56.3687 18.26 55.2754 18.0167 54.362 17.53C53.4487 17.0433 52.7487 16.3767 52.262 15.53C51.7754 14.6833 51.532 13.72 51.532 12.64C51.532 11.5533 51.7754 10.6 52.262 9.77999C52.7487 8.95999 53.4487 8.31999 54.362 7.85999C55.2754 7.39332 56.3687 7.15999 57.642 7.15999C58.582 7.15999 59.4087 7.29332 60.122 7.55999C60.8354 7.82666 61.4287 8.17999 61.902 8.61999C62.382 9.05332 62.742 9.52999 62.982 10.05C63.2287 10.57 63.352 11.0867 63.352 11.6C63.352 11.6133 63.352 11.63 63.352 11.65C63.352 11.6633 63.352 11.6767 63.352 11.69H59.362C59.362 11.65 59.3587 11.6133 59.352 11.58C59.352 11.5467 59.3454 11.5133 59.332 11.48C59.2787 11.3067 59.1954 11.1267 59.082 10.94C58.9687 10.7533 58.7954 10.5967 58.562 10.47C58.3354 10.3367 58.0154 10.27 57.602 10.27C57.1954 10.27 56.842 10.3633 56.542 10.55C56.2487 10.7367 56.022 11.0067 55.862 11.36C55.702 11.7133 55.622 12.14 55.622 12.64C55.622 13.1267 55.702 13.56 55.862 13.94C56.022 14.32 56.2487 14.6167 56.542 14.83C56.842 15.0433 57.1954 15.15 57.602 15.15C58.002 15.15 58.322 15.09 58.562 14.97C58.8087 14.85 58.992 14.6867 59.112 14.48C59.2387 14.2667 59.3187 14.0267 59.352 13.76H63.352C63.352 14.2667 63.2287 14.7867 62.982 15.32C62.742 15.8467 62.382 16.3333 61.902 16.78C61.4287 17.22 60.8354 17.5767 60.122 17.85C59.4087 18.1233 58.582 18.26 57.642 18.26Z" fill="#3C2F71"/>
<path d="M68.3269 18.24C67.5669 18.24 66.8869 18.12 66.2869 17.88C65.6869 17.6333 65.2135 17.28 64.8669 16.82C64.5202 16.3533 64.3469 15.7867 64.3469 15.12C64.3469 14.3333 64.5702 13.7 65.0169 13.22C65.4702 12.74 66.0469 12.3767 66.7469 12.13C67.4535 11.8833 68.1835 11.7267 68.9369 11.66C70.0102 11.56 70.7335 11.4733 71.1069 11.4C71.4802 11.3267 71.6669 11.1967 71.6669 11.01C71.6669 11.0033 71.6669 11 71.6669 11C71.6669 10.7533 71.5169 10.5433 71.2169 10.37C70.9235 10.19 70.5302 10.1 70.0369 10.1C69.5035 10.1 69.1069 10.2 68.8469 10.4C68.5869 10.5933 68.4569 10.8767 68.4569 11.25H64.4869C64.4869 10.3567 64.7369 9.60666 65.2369 8.99999C65.7369 8.39332 66.4069 7.93666 67.2469 7.62999C68.0935 7.31666 69.0335 7.15999 70.0669 7.15999C71.0469 7.15999 71.9635 7.30666 72.8169 7.59999C73.6769 7.89332 74.3735 8.34332 74.9069 8.94999C75.4402 9.54999 75.7069 10.32 75.7069 11.26C75.7069 11.4 75.7069 11.54 75.7069 11.68C75.7069 11.82 75.7069 11.96 75.7069 12.1V15.39C75.7069 15.6833 75.7135 15.9667 75.7269 16.24C75.7402 16.5133 75.7802 16.7667 75.8469 17C75.9202 17.2467 76.0169 17.46 76.1369 17.64C76.2569 17.8133 76.3535 17.9333 76.4269 18H72.4869C72.4269 17.94 72.3402 17.83 72.2269 17.67C72.1135 17.51 72.0202 17.3267 71.9469 17.12C71.8469 16.82 71.7735 16.54 71.7269 16.28C71.6869 16.0133 71.6669 15.69 71.6669 15.31L72.5469 15.92C72.3669 16.4067 72.0602 16.8233 71.6269 17.17C71.2002 17.5167 70.6969 17.7833 70.1169 17.97C69.5435 18.15 68.9469 18.24 68.3269 18.24ZM69.5269 15.38C69.8735 15.38 70.2135 15.3033 70.5469 15.15C70.8869 14.9967 71.1702 14.7433 71.3969 14.39C71.6235 14.03 71.7369 13.5433 71.7369 12.93V12.55L72.7669 13.38C72.3269 13.5333 71.8369 13.6633 71.2969 13.77C70.7569 13.87 70.2402 13.9467 69.7469 14C69.2869 14.0467 68.9435 14.1233 68.7169 14.23C68.4969 14.33 68.3869 14.4933 68.3869 14.72C68.3869 14.9467 68.4869 15.1133 68.6869 15.22C68.8869 15.3267 69.1669 15.38 69.5269 15.38Z" fill="#3C2F71"/>
<path d="M82.2594 18.26C81.6327 18.26 81.0127 18.1833 80.3994 18.03C79.786 17.8833 79.226 17.66 78.7194 17.36C78.2194 17.0533 77.816 16.67 77.5094 16.21C77.2094 15.75 77.0594 15.21 77.0594 14.59C77.0594 14.5767 77.0594 14.56 77.0594 14.54C77.0594 14.52 77.0594 14.5033 77.0594 14.49H81.0494C81.0494 14.5033 81.0494 14.52 81.0494 14.54C81.0494 14.56 81.0494 14.5767 81.0494 14.59C81.0494 14.87 81.1694 15.0667 81.4094 15.18C81.6494 15.2933 81.9727 15.35 82.3794 15.35C82.526 15.35 82.696 15.3333 82.8894 15.3C83.0827 15.26 83.2494 15.1967 83.3894 15.11C83.536 15.0167 83.6094 14.8967 83.6094 14.75C83.6094 14.53 83.456 14.3767 83.1494 14.29C82.8494 14.1967 82.3227 14.09 81.5694 13.97C81.116 13.8967 80.636 13.79 80.1294 13.65C79.6227 13.5033 79.146 13.3067 78.6994 13.06C78.2527 12.8067 77.8894 12.4867 77.6094 12.1C77.3294 11.7133 77.1894 11.2367 77.1894 10.67C77.1894 9.89666 77.4227 9.24999 77.8894 8.72999C78.3627 8.20999 78.986 7.81999 79.7594 7.55999C80.5394 7.29332 81.3894 7.15999 82.3094 7.15999C83.1827 7.15999 84.0027 7.30999 84.7694 7.60999C85.536 7.90332 86.1594 8.32332 86.6394 8.86999C87.1194 9.41666 87.3594 10.0633 87.3594 10.81C87.3594 10.8233 87.3594 10.84 87.3594 10.86C87.3594 10.88 87.3594 10.8967 87.3594 10.91H83.4094C83.4094 10.8967 83.4094 10.88 83.4094 10.86C83.4094 10.84 83.4094 10.8233 83.4094 10.81C83.4094 10.6233 83.3494 10.4767 83.2294 10.37C83.116 10.2567 82.9727 10.1733 82.7994 10.12C82.626 10.0667 82.4527 10.04 82.2794 10.04C82.146 10.04 81.986 10.0567 81.7994 10.09C81.6194 10.1167 81.4627 10.17 81.3294 10.25C81.196 10.33 81.1294 10.4467 81.1294 10.6C81.1294 10.7333 81.2127 10.8467 81.3794 10.94C81.5527 11.0333 81.786 11.1133 82.0794 11.18C82.3794 11.24 82.7127 11.2967 83.0794 11.35C83.4594 11.4033 83.8994 11.49 84.3994 11.61C84.8994 11.73 85.386 11.91 85.8594 12.15C86.3327 12.3833 86.7227 12.7033 87.0294 13.11C87.3427 13.51 87.4994 14.0233 87.4994 14.65C87.4994 15.3233 87.3427 15.89 87.0294 16.35C86.7227 16.81 86.3094 17.18 85.7894 17.46C85.276 17.74 84.7127 17.9433 84.0994 18.07C83.486 18.1967 82.8727 18.26 82.2594 18.26Z" fill="#3C2F71"/>
<path d="M93.607 18.26C92.9804 18.26 92.3604 18.1833 91.747 18.03C91.1337 17.8833 90.5737 17.66 90.067 17.36C89.567 17.0533 89.1637 16.67 88.857 16.21C88.557 15.75 88.407 15.21 88.407 14.59C88.407 14.5767 88.407 14.56 88.407 14.54C88.407 14.52 88.407 14.5033 88.407 14.49H92.397C92.397 14.5033 92.397 14.52 92.397 14.54C92.397 14.56 92.397 14.5767 92.397 14.59C92.397 14.87 92.517 15.0667 92.757 15.18C92.997 15.2933 93.3204 15.35 93.727 15.35C93.8737 15.35 94.0437 15.3333 94.237 15.3C94.4304 15.26 94.597 15.1967 94.737 15.11C94.8837 15.0167 94.957 14.8967 94.957 14.75C94.957 14.53 94.8037 14.3767 94.497 14.29C94.197 14.1967 93.6704 14.09 92.917 13.97C92.4637 13.8967 91.9837 13.79 91.477 13.65C90.9704 13.5033 90.4937 13.3067 90.047 13.06C89.6004 12.8067 89.237 12.4867 88.957 12.1C88.677 11.7133 88.537 11.2367 88.537 10.67C88.537 9.89666 88.7704 9.24999 89.237 8.72999C89.7104 8.20999 90.3337 7.81999 91.107 7.55999C91.887 7.29332 92.737 7.15999 93.657 7.15999C94.5304 7.15999 95.3504 7.30999 96.117 7.60999C96.8837 7.90332 97.507 8.32332 97.987 8.86999C98.467 9.41666 98.707 10.0633 98.707 10.81C98.707 10.8233 98.707 10.84 98.707 10.86C98.707 10.88 98.707 10.8967 98.707 10.91H94.757C94.757 10.8967 94.757 10.88 94.757 10.86C94.757 10.84 94.757 10.8233 94.757 10.81C94.757 10.6233 94.697 10.4767 94.577 10.37C94.4637 10.2567 94.3204 10.1733 94.147 10.12C93.9737 10.0667 93.8004 10.04 93.627 10.04C93.4937 10.04 93.3337 10.0567 93.147 10.09C92.967 10.1167 92.8104 10.17 92.677 10.25C92.5437 10.33 92.477 10.4467 92.477 10.6C92.477 10.7333 92.5604 10.8467 92.727 10.94C92.9004 11.0333 93.1337 11.1133 93.427 11.18C93.727 11.24 94.0604 11.2967 94.427 11.35C94.807 11.4033 95.247 11.49 95.747 11.61C96.247 11.73 96.7337 11.91 97.207 12.15C97.6804 12.3833 98.0704 12.7033 98.377 13.11C98.6904 13.51 98.847 14.0233 98.847 14.65C98.847 15.3233 98.6904 15.89 98.377 16.35C98.0704 16.81 97.657 17.18 97.137 17.46C96.6237 17.74 96.0604 17.9433 95.447 18.07C94.8337 18.1967 94.2204 18.26 93.607 18.26Z" fill="#3C2F71"/>
</svg>
