<svg width="320" height="344" viewBox="0 0 320 344" fill="none" xmlns="http://www.w3.org/2000/svg">
<path d="M130.72 326.174C160.39 326.759 196.236 318.145 215.521 293.728C244.674 256.837 280.485 265.197 307.119 189.014C311.059 177.913 313.777 166.418 315.226 154.731C315.917 149.008 316.242 143.247 316.199 137.483C315.806 86.688 285.736 48.387 245.536 30.3133C192.668 6.536 152.103 33.8702 127.401 52.288C102.699 70.7058 32.7815 77.056 6.00952 151.732C1.87353 163.118 -0.930315 174.943 -2.34637 186.971C-5.46517 214.422 -0.593772 245.513 15.3521 268.753C16.5458 270.501 17.8085 272.193 19.1126 273.886C44.6771 306.662 90.2309 325.376 130.72 326.174Z" fill="#61C0CD"/>
<path opacity="0.8" d="M130.72 326.174C160.39 326.759 196.236 318.145 215.521 293.728C244.674 256.837 280.485 265.197 307.119 189.014C311.059 177.913 313.777 166.418 315.226 154.731C315.917 149.008 316.242 143.247 316.199 137.483C315.806 86.688 285.736 48.387 245.536 30.3133C192.668 6.536 152.103 33.8702 127.401 52.288C102.699 70.7058 32.7815 77.056 6.00952 151.732C1.87353 163.118 -0.930315 174.943 -2.34637 186.971C-5.46517 214.422 -0.593772 245.513 15.3521 268.753C16.5458 270.501 17.8085 272.193 19.1126 273.886C44.6771 306.662 90.2309 325.376 130.72 326.174Z" fill="#F1EEFF"/>
<g opacity="0.3">
<path d="M217.791 85.0093C217.82 84.7811 217.834 84.5513 217.833 84.3213C217.895 79.1957 219.806 75.6456 224.463 72.9486C233.185 67.8987 238.263 72.9486 240.782 77.4413C243.3 81.9339 247.254 74.6342 253.45 75.4736C259.647 76.313 259.357 83.0416 261.04 86.7018C262.724 90.3619 266.388 85.5803 271.176 86.4197C275.965 87.259 276.241 90.0661 277.083 91.1875C277.925 92.309 285.528 89.5088 289.751 91.7517C292.441 93.2964 294.674 95.5227 296.223 98.2051H203.915C203.915 98.2051 202.791 91.4765 206.448 88.9446C209.725 86.688 217.163 90.3275 217.791 85.0093Z" stroke="#3C2F71" stroke-linecap="round" stroke-linejoin="round"/>
<path d="M260.64 93.4098C260.956 93.4854 261.249 93.6339 261.496 93.8432C262.683 94.8821 262.683 95.6182 262.683 95.6182" stroke="#3C2F71" stroke-linecap="round" stroke-linejoin="round"/>
<path d="M240.23 84.6928C241.051 86.4885 241.776 88.4493 243.473 89.2405C245.888 90.3688 248.151 87.8232 250.373 87.2453C251.004 87.0412 251.682 87.0354 252.317 87.2286C252.951 87.4218 253.511 87.8047 253.92 88.3254C254.92 89.4744 254.941 92.0682 256.259 92.8043C257.069 93.1183 257.937 93.2544 258.805 93.2034" stroke="#3C2F71" stroke-linecap="round" stroke-linejoin="round"/>
<path d="M212.775 92.9832C212.844 92.8181 212.913 92.6598 212.989 92.5085C214.762 88.9653 218.957 91.8205 221.538 90.8229C223.829 89.9422 223.077 86.3302 223.387 84.4382C223.98 80.785 228.583 77.9986 232.185 78.5627C234.855 79.0109 237.27 80.4121 238.981 82.505" stroke="#3C2F71" stroke-linecap="round" stroke-linejoin="round"/>
<path d="M212.05 96.2237C212.112 95.5964 212.213 94.9737 212.354 94.3592" stroke="#3C2F71" stroke-linecap="round" stroke-linejoin="round"/>
</g>
<path d="M301.688 199.967C279.684 178.839 228.548 130.328 223.083 130.328C216.073 130.328 169.56 163.999 169.56 163.999C169.56 163.999 99.47 101.735 91.19 102.368C82.91 103 3.25641 190.046 3.25641 190.046" stroke="#92D5DE" stroke-linecap="round" stroke-linejoin="round"/>
<path d="M131.934 132.557L104.866 121.762L99.9047 136.155L94.4882 132.557L90.4241 137.504L84.5591 128.959L62.4515 155.055L62.003 134.807L55.6895 138.852L55.2341 134.807" stroke="#92D5DE" stroke-linecap="round" stroke-linejoin="round"/>
<path d="M248.793 151.002L238.415 147.851L237.967 152.351L228.038 149.207L229.845 160.903L212.25 149.654L198.713 160.001L197.809 154.153L193.752 157.297L189.239 150.101" stroke="#92D5DE" stroke-linecap="round" stroke-linejoin="round"/>
<path d="M178.178 182.471C178.178 182.189 178.385 181.983 178.592 182.024L190.44 184.556C190.861 184.645 191.026 183.868 190.64 183.648L178.703 176.933C178.628 176.88 178.569 176.808 178.531 176.724C178.494 176.641 178.479 176.549 178.489 176.458C178.986 167.879 179.752 158.467 180.752 148.863C180.752 148.594 180.973 148.408 181.173 148.457L191.654 151.14C192.04 151.236 192.247 150.569 191.923 150.28L181.815 141.116C181.755 141.055 181.71 140.981 181.683 140.9C181.657 140.818 181.65 140.732 181.663 140.648C182.201 136.011 182.794 131.374 183.436 126.805L184.264 122.244C184.312 121.955 184.547 121.797 184.747 121.914L190.847 125.264C191.212 125.464 191.537 124.858 191.24 124.487L185.168 116.423C185.123 116.36 185.091 116.289 185.074 116.213C185.058 116.137 185.057 116.059 185.071 115.983C186.286 108.47 187.624 101.322 189.073 94.889C189.142 94.5862 189.405 94.4555 189.605 94.6206L197.45 101.047C197.781 101.322 198.14 100.792 197.926 100.359L191.026 87.493C190.955 87.3575 190.938 87.2002 190.978 87.0526C192.03 82.9571 193.332 78.9295 194.876 74.992C194.966 74.7718 195.166 74.6824 195.332 74.7856L200.79 77.971C201.073 78.1362 201.369 77.7853 201.28 77.4L199.561 70.52C199.561 70.3962 199.41 69.8939 199.279 69.4536L198.83 67.6854C200.093 66.1374 201.39 65.2843 202.715 65.2843C204.04 65.2843 205.516 66.2475 206.855 68.0363L204.819 77.4138C204.73 77.799 205.026 78.1499 205.309 77.9848L210.215 75.1158C210.259 75.0937 210.307 75.0817 210.356 75.0808C210.405 75.0799 210.454 75.0902 210.498 75.1107C210.543 75.1312 210.582 75.1615 210.613 75.1994C210.644 75.2372 210.666 75.2816 210.677 75.3291C212.258 79.4444 213.587 83.6511 214.659 87.9264C214.698 88.0734 214.683 88.2295 214.617 88.3667L208.152 100.386C207.924 100.813 208.297 101.342 208.628 101.074L215.921 95.116C216.121 94.9509 216.384 95.0816 216.453 95.3843C217.909 101.907 219.254 109.144 220.475 116.747C220.499 116.901 220.462 117.059 220.372 117.187L214.852 124.514C214.576 124.886 214.852 125.491 215.238 125.292L220.91 122.175C221.117 122.058 221.359 122.223 221.4 122.519C222.311 128.635 223.132 134.903 223.863 141.205C223.874 141.288 223.867 141.373 223.84 141.453C223.814 141.533 223.77 141.606 223.711 141.666L214.203 150.28C213.886 150.569 214.093 151.236 214.472 151.14L224.27 148.608C224.477 148.553 224.671 148.739 224.698 149.007C225.706 158.694 226.471 168.175 226.961 176.802C226.973 176.893 226.959 176.986 226.921 177.069C226.883 177.153 226.823 177.225 226.747 177.277L215.466 183.627C215.08 183.847 215.245 184.625 215.666 184.535L226.844 182.148C227.051 182.1 227.244 182.313 227.258 182.595C227.472 187.556 227.589 192.152 227.589 196.238C227.589 198.825 227.543 201.311 227.451 203.696C227.454 203.784 227.433 203.872 227.389 203.948C227.345 204.025 227.28 204.087 227.203 204.13L215.39 209.063C215.011 209.221 215.08 209.957 215.473 209.991L226.616 210.975C226.73 211.006 226.828 211.078 226.89 211.178C226.953 211.277 226.976 211.396 226.954 211.512C226.461 218.365 225.236 225.146 223.297 231.739C223.228 231.973 223.035 232.083 222.856 232.007L216.011 229.063C215.659 228.911 215.39 229.482 215.638 229.84L220.958 237.36C221.014 237.445 221.048 237.542 221.055 237.644C221.062 237.745 221.043 237.846 221 237.938C216.46 247.914 209.96 252.228 202.715 252.228C195.628 252.228 189.232 248.1 184.699 238.523C184.657 238.429 184.639 238.327 184.647 238.225C184.654 238.123 184.686 238.025 184.74 237.938L190.44 229.868C190.688 229.51 190.44 228.939 190.067 229.09L182.629 232.296C182.582 232.312 182.533 232.317 182.484 232.312C182.435 232.306 182.387 232.29 182.345 232.265C182.303 232.239 182.267 232.205 182.24 232.164C182.213 232.123 182.195 232.077 182.187 232.028C180.206 225.374 178.955 218.525 178.454 211.601C178.433 211.486 178.456 211.367 178.518 211.267C178.581 211.168 178.679 211.095 178.792 211.065L190.605 210.019C190.999 209.984 191.068 209.248 190.688 209.09L178.365 203.951C178.301 203.919 178.246 203.873 178.206 203.815C178.165 203.757 178.139 203.691 178.13 203.62L177.951 202.747C177.951 202.747 177.951 202.678 177.951 202.644C177.889 200.58 177.854 198.481 177.854 196.286C177.84 192.138 177.958 187.487 178.178 182.471Z" fill="#61C0CD"/>
<path opacity="0.4" d="M178.178 182.471C178.178 182.189 178.385 181.983 178.592 182.024L190.44 184.556C190.861 184.645 191.026 183.868 190.64 183.648L178.703 176.933C178.628 176.88 178.569 176.808 178.531 176.724C178.494 176.641 178.479 176.549 178.489 176.458C178.986 167.879 179.752 158.467 180.752 148.863C180.752 148.594 180.973 148.408 181.173 148.457L191.654 151.14C192.04 151.236 192.247 150.569 191.923 150.28L181.815 141.116C181.755 141.055 181.71 140.981 181.683 140.9C181.657 140.818 181.65 140.732 181.663 140.648C182.201 136.011 182.794 131.374 183.436 126.805L184.264 122.244C184.312 121.955 184.547 121.797 184.747 121.914L190.847 125.264C191.212 125.464 191.537 124.858 191.24 124.487L185.168 116.423C185.123 116.36 185.091 116.289 185.074 116.213C185.058 116.137 185.057 116.059 185.071 115.983C186.286 108.47 187.624 101.322 189.073 94.889C189.142 94.5862 189.405 94.4555 189.605 94.6206L197.45 101.047C197.781 101.322 198.14 100.792 197.926 100.359L191.026 87.493C190.955 87.3575 190.938 87.2002 190.978 87.0526C192.03 82.9571 193.332 78.9295 194.876 74.992C194.966 74.7718 195.166 74.6824 195.332 74.7856L200.79 77.971C201.073 78.1362 201.369 77.7853 201.28 77.4L199.561 70.52C199.561 70.3962 199.41 69.8939 199.279 69.4536L198.83 67.6854C200.093 66.1374 201.39 65.2843 202.715 65.2843C204.04 65.2843 205.516 66.2475 206.855 68.0363L204.819 77.4138C204.73 77.799 205.026 78.1499 205.309 77.9848L210.215 75.1158C210.259 75.0937 210.307 75.0817 210.356 75.0808C210.405 75.0799 210.454 75.0902 210.498 75.1107C210.543 75.1312 210.582 75.1615 210.613 75.1994C210.644 75.2372 210.666 75.2816 210.677 75.3291C212.258 79.4444 213.587 83.6511 214.659 87.9264C214.698 88.0734 214.683 88.2295 214.617 88.3667L208.152 100.386C207.924 100.813 208.297 101.342 208.628 101.074L215.921 95.116C216.121 94.9509 216.384 95.0816 216.453 95.3843C217.909 101.907 219.254 109.144 220.475 116.747C220.499 116.901 220.462 117.059 220.372 117.187L214.852 124.514C214.576 124.886 214.852 125.491 215.238 125.292L220.91 122.175C221.117 122.058 221.359 122.223 221.4 122.519C222.311 128.635 223.132 134.903 223.863 141.205C223.874 141.288 223.867 141.373 223.84 141.453C223.814 141.533 223.77 141.606 223.711 141.666L214.203 150.28C213.886 150.569 214.093 151.236 214.472 151.14L224.27 148.608C224.477 148.553 224.671 148.739 224.698 149.007C225.706 158.694 226.471 168.175 226.961 176.802C226.973 176.893 226.959 176.986 226.921 177.069C226.883 177.153 226.823 177.225 226.747 177.277L215.466 183.627C215.08 183.847 215.245 184.625 215.666 184.535L226.844 182.148C227.051 182.1 227.244 182.313 227.258 182.595C227.472 187.556 227.589 192.152 227.589 196.238C227.589 198.825 227.543 201.311 227.451 203.696C227.454 203.784 227.433 203.872 227.389 203.948C227.345 204.025 227.28 204.087 227.203 204.13L215.39 209.063C215.011 209.221 215.08 209.957 215.473 209.991L226.616 210.975C226.73 211.006 226.828 211.078 226.89 211.178C226.953 211.277 226.976 211.396 226.954 211.512C226.461 218.365 225.236 225.146 223.297 231.739C223.228 231.973 223.035 232.083 222.856 232.007L216.011 229.063C215.659 228.911 215.39 229.482 215.638 229.84L220.958 237.36C221.014 237.445 221.048 237.542 221.055 237.644C221.062 237.745 221.043 237.846 221 237.938C216.46 247.914 209.96 252.228 202.715 252.228C195.628 252.228 189.232 248.1 184.699 238.523C184.657 238.429 184.639 238.327 184.647 238.225C184.654 238.123 184.686 238.025 184.74 237.938L190.44 229.868C190.688 229.51 190.44 228.939 190.067 229.09L182.629 232.296C182.582 232.312 182.533 232.317 182.484 232.312C182.435 232.306 182.387 232.29 182.345 232.265C182.303 232.239 182.267 232.205 182.24 232.164C182.213 232.123 182.195 232.077 182.187 232.028C180.206 225.374 178.955 218.525 178.454 211.601C178.433 211.486 178.456 211.367 178.518 211.267C178.581 211.168 178.679 211.095 178.792 211.065L190.605 210.019C190.999 209.984 191.068 209.248 190.688 209.09L178.365 203.951C178.301 203.919 178.246 203.873 178.206 203.815C178.165 203.757 178.139 203.691 178.13 203.62L177.951 202.747C177.951 202.747 177.951 202.678 177.951 202.644C177.889 200.58 177.854 198.481 177.854 196.286C177.84 192.138 177.958 187.487 178.178 182.471Z" fill="#F1EEFF"/>
<path d="M201.728 216.342L202.487 173.225L189.198 162.237L202.591 167.666L202.839 153.568L202.949 153.796L202.867 151.732L203.225 131.47L192.22 121.336L203.011 127.796L203.253 129.943L203.695 104.831L203.936 109.777L205.102 147.308L205.606 146.31L214.238 140.71L205.171 149.502L206.648 197.084L220.282 192.812L206.8 202.052L207.814 234.732L212.947 233.714L207.973 239.906L208.531 257.718L209.208 295.008H200.341L201.659 220.249L190.923 217.78L201.728 216.342Z" fill="#3C2F71"/>
<path opacity="0.5" d="M201.728 216.342L202.487 173.225L189.198 162.237L202.591 167.666L202.839 153.568L202.949 153.796L202.867 151.732L203.225 131.47L192.22 121.336L203.011 127.796L203.253 129.943L203.695 104.831L203.936 109.777L205.102 147.308L205.606 146.31L214.238 140.71L205.171 149.502L206.648 197.084L220.282 192.812L206.8 202.052L207.814 234.732L212.947 233.714L207.973 239.906L208.531 257.718L209.208 295.008H200.341L201.659 220.249L190.923 217.78L201.728 216.342Z" fill="#F1EEFF"/>
<path d="M252.65 201.199C252.65 200.965 252.823 200.793 252.995 200.827L262.862 202.96C263.214 203.036 263.352 202.382 263.028 202.203L253.085 196.603C253.021 196.561 252.97 196.502 252.937 196.433C252.904 196.364 252.891 196.287 252.898 196.211C253.312 189.056 253.954 181.212 254.789 173.211C254.789 172.984 254.968 172.826 255.141 172.874L263.876 175.103C264.194 175.185 264.373 174.628 264.104 174.415L255.672 166.778C255.623 166.727 255.585 166.665 255.562 166.597C255.54 166.529 255.532 166.457 255.541 166.386C255.997 162.526 256.493 158.66 257.025 154.848L257.715 151.044C257.756 150.81 257.949 150.679 258.122 150.768L263.207 153.568C263.504 153.734 263.759 153.224 263.531 152.915L258.467 146.193C258.394 146.086 258.364 145.956 258.384 145.828C259.398 139.561 260.516 133.603 261.724 128.243C261.779 127.996 262 127.885 262.165 128.023L268.72 133.376C268.996 133.603 269.307 133.162 269.12 132.812L263.352 122.086C263.295 121.973 263.283 121.843 263.317 121.721C264.193 118.301 265.276 114.938 266.56 111.649C266.636 111.47 266.802 111.394 266.94 111.477L271.487 114.139C271.722 114.277 271.97 113.981 271.894 113.658L270.466 107.94C270.466 107.837 270.342 107.417 270.231 107.053L269.859 105.574C270.914 104.28 271.991 103.572 273.095 103.572C274.199 103.572 275.427 104.376 276.545 105.842L274.847 113.658C274.771 113.981 275.02 114.277 275.254 114.139L279.346 111.745C279.491 111.662 279.657 111.745 279.733 111.924C281.046 115.355 282.154 118.861 283.051 122.423C283.069 122.483 283.075 122.547 283.067 122.609C283.06 122.672 283.041 122.732 283.01 122.787L277.635 132.784C277.442 133.135 277.752 133.575 278.028 133.348L284.107 128.381C284.28 128.243 284.494 128.381 284.556 128.608C285.763 134.043 286.888 140.077 287.902 146.413C287.915 146.476 287.914 146.542 287.899 146.604C287.885 146.667 287.858 146.726 287.819 146.778L283.224 152.887C282.989 153.197 283.224 153.706 283.548 153.541L288.24 150.961C288.413 150.865 288.613 151.002 288.647 151.25C289.406 156.348 290.089 161.57 290.717 166.819C290.726 166.885 290.719 166.952 290.699 167.015C290.679 167.078 290.645 167.135 290.6 167.184L282.679 174.36C282.41 174.601 282.582 175.158 282.9 175.048L291.09 172.984C291.262 172.943 291.421 173.094 291.442 173.321C292.284 181.391 292.925 189.296 293.332 196.486C293.341 196.562 293.329 196.64 293.298 196.71C293.266 196.78 293.216 196.841 293.153 196.885L283.7 202.183C283.376 202.361 283.514 203.015 283.859 202.939L293.181 200.951C293.353 200.91 293.512 201.089 293.526 201.323C293.705 205.451 293.802 209.29 293.802 212.695C293.802 214.849 293.76 216.926 293.684 218.887C293.687 218.96 293.67 219.033 293.633 219.096C293.596 219.159 293.542 219.211 293.477 219.245L283.652 223.373C283.341 223.504 283.396 224.116 283.721 224.15L293.043 224.976C293.215 224.976 293.339 225.196 293.319 225.423C292.908 231.136 291.888 236.789 290.276 242.286C290.214 242.479 290.055 242.575 289.903 242.506L284.204 240.05C283.907 239.926 283.679 240.401 283.893 240.697L288.302 246.944C288.342 247.018 288.362 247.101 288.362 247.185C288.362 247.269 288.342 247.351 288.302 247.425C284.514 255.743 279.091 259.342 273.06 259.342C267.154 259.342 261.82 255.902 258.046 247.914C258.003 247.839 257.981 247.755 257.981 247.67C257.981 247.584 258.003 247.5 258.046 247.425L262.793 240.697C263 240.401 262.793 239.926 262.483 240.05L256.273 242.72C256.128 242.788 255.962 242.72 255.907 242.499C254.254 236.952 253.211 231.243 252.795 225.471C252.779 225.375 252.799 225.277 252.851 225.194C252.904 225.112 252.984 225.051 253.078 225.024L263 224.144C263.331 224.109 263.386 223.497 263.069 223.366L252.795 219.087C252.742 219.061 252.697 219.022 252.663 218.974C252.629 218.926 252.608 218.87 252.602 218.812L252.45 218.082C252.45 218.082 252.45 218.027 252.45 217.993C252.395 216.287 252.367 214.521 252.367 212.695C252.36 209.255 252.457 205.382 252.65 201.199Z" fill="#61C0CD"/>
<path opacity="0.4" d="M252.65 201.199C252.65 200.965 252.823 200.793 252.995 200.827L262.862 202.96C263.214 203.036 263.352 202.382 263.028 202.203L253.085 196.603C253.021 196.561 252.97 196.502 252.937 196.433C252.904 196.364 252.891 196.287 252.898 196.211C253.312 189.056 253.954 181.212 254.789 173.211C254.789 172.984 254.968 172.826 255.141 172.874L263.876 175.103C264.194 175.185 264.373 174.628 264.104 174.415L255.672 166.778C255.623 166.727 255.585 166.665 255.562 166.597C255.54 166.529 255.532 166.457 255.541 166.386C255.997 162.526 256.493 158.66 257.025 154.848L257.715 151.044C257.756 150.81 257.949 150.679 258.122 150.768L263.207 153.568C263.504 153.734 263.759 153.224 263.531 152.915L258.467 146.193C258.394 146.086 258.364 145.956 258.384 145.828C259.398 139.561 260.516 133.603 261.724 128.243C261.779 127.996 262 127.885 262.165 128.023L268.72 133.376C268.996 133.603 269.307 133.162 269.12 132.812L263.352 122.086C263.295 121.973 263.283 121.843 263.317 121.721C264.193 118.301 265.276 114.938 266.56 111.649C266.636 111.47 266.802 111.394 266.94 111.477L271.487 114.139C271.722 114.277 271.97 113.981 271.894 113.658L270.466 107.94C270.466 107.837 270.342 107.417 270.231 107.053L269.859 105.574C270.914 104.28 271.991 103.572 273.095 103.572C274.199 103.572 275.427 104.376 276.545 105.842L274.847 113.658C274.771 113.981 275.02 114.277 275.254 114.139L279.346 111.745C279.491 111.662 279.657 111.745 279.733 111.924C281.046 115.355 282.154 118.861 283.051 122.423C283.069 122.483 283.075 122.547 283.067 122.609C283.06 122.672 283.041 122.732 283.01 122.787L277.635 132.784C277.442 133.135 277.752 133.575 278.028 133.348L284.107 128.381C284.28 128.243 284.494 128.381 284.556 128.608C285.763 134.043 286.888 140.077 287.902 146.413C287.915 146.476 287.914 146.542 287.899 146.604C287.885 146.667 287.858 146.726 287.819 146.778L283.224 152.887C282.989 153.197 283.224 153.706 283.548 153.541L288.24 150.961C288.413 150.865 288.613 151.002 288.647 151.25C289.406 156.348 290.089 161.57 290.717 166.819C290.726 166.885 290.719 166.952 290.699 167.015C290.679 167.078 290.645 167.135 290.6 167.184L282.679 174.36C282.41 174.601 282.582 175.158 282.9 175.048L291.09 172.984C291.262 172.943 291.421 173.094 291.442 173.321C292.284 181.391 292.925 189.296 293.332 196.486C293.341 196.562 293.329 196.64 293.298 196.71C293.266 196.78 293.216 196.841 293.153 196.885L283.7 202.183C283.376 202.361 283.514 203.015 283.859 202.939L293.181 200.951C293.353 200.91 293.512 201.089 293.526 201.323C293.705 205.451 293.802 209.29 293.802 212.695C293.802 214.849 293.76 216.926 293.684 218.887C293.687 218.96 293.67 219.033 293.633 219.096C293.596 219.159 293.542 219.211 293.477 219.245L283.652 223.373C283.341 223.504 283.396 224.116 283.721 224.15L293.043 224.976C293.215 224.976 293.339 225.196 293.319 225.423C292.908 231.136 291.888 236.789 290.276 242.286C290.214 242.479 290.055 242.575 289.903 242.506L284.204 240.05C283.907 239.926 283.679 240.401 283.893 240.697L288.302 246.944C288.342 247.018 288.362 247.101 288.362 247.185C288.362 247.269 288.342 247.351 288.302 247.425C284.514 255.743 279.091 259.342 273.06 259.342C267.154 259.342 261.82 255.902 258.046 247.914C258.003 247.839 257.981 247.755 257.981 247.67C257.981 247.584 258.003 247.5 258.046 247.425L262.793 240.697C263 240.401 262.793 239.926 262.483 240.05L256.273 242.72C256.128 242.788 255.962 242.72 255.907 242.499C254.254 236.952 253.211 231.243 252.795 225.471C252.779 225.375 252.799 225.277 252.851 225.194C252.904 225.112 252.984 225.051 253.078 225.024L263 224.144C263.331 224.109 263.386 223.497 263.069 223.366L252.795 219.087C252.742 219.061 252.697 219.022 252.663 218.974C252.629 218.926 252.608 218.87 252.602 218.812L252.45 218.082C252.45 218.082 252.45 218.027 252.45 217.993C252.395 216.287 252.367 214.521 252.367 212.695C252.36 209.255 252.457 205.382 252.65 201.199Z" fill="#F1EEFF"/>
<path d="M272.274 229.434L272.908 193.493L261.827 184.336L272.991 188.856L273.198 177.112L273.288 177.298L273.219 175.578L273.523 158.687L264.346 150.245L273.343 155.626L273.543 157.414L273.909 136.485L274.116 140.607L275.082 171.89L275.503 171.057L282.7 166.393L275.137 173.72L276.372 213.383L287.743 209.819L276.503 217.525L277.345 244.763L281.623 243.91L277.476 249.077L277.939 263.931L278.504 295.008H271.121L272.218 232.695L263.269 230.631L272.274 229.434Z" fill="#3C2F71"/>
<path opacity="0.5" d="M272.274 229.434L272.908 193.493L261.827 184.336L272.991 188.856L273.198 177.112L273.288 177.298L273.219 175.578L273.523 158.687L264.346 150.245L273.343 155.626L273.543 157.414L273.909 136.485L274.116 140.607L275.082 171.89L275.503 171.057L282.7 166.393L275.137 173.72L276.372 213.383L287.743 209.819L276.503 217.525L277.345 244.763L281.623 243.91L277.476 249.077L277.939 263.931L278.504 295.008H271.121L272.218 232.695L263.269 230.631L272.274 229.434Z" fill="#F1EEFF"/>
<path d="M15.0623 214.842C15.0623 214.642 15.2072 214.491 15.359 214.525L23.7977 216.328C24.0944 216.39 24.2117 215.832 23.9357 215.681L15.4349 210.865C15.3835 210.826 15.3432 210.775 15.3178 210.716C15.2924 210.657 15.2828 210.592 15.29 210.528C15.6419 204.419 16.187 197.711 16.8977 190.872C16.8977 190.679 17.0564 190.548 17.2013 190.583L24.6671 192.496C24.9431 192.564 25.088 192.09 24.8603 191.883L17.6567 185.354C17.6145 185.311 17.5826 185.259 17.5635 185.202C17.5443 185.144 17.5385 185.084 17.5463 185.024C17.9327 181.721 18.3605 178.419 18.8159 175.165L19.4024 171.911C19.4369 171.704 19.6025 171.594 19.7474 171.677L24.0944 174.064C24.3497 174.208 24.5705 173.775 24.3704 173.514L20.0441 167.762C19.9827 167.671 19.958 167.561 19.9751 167.452C20.8445 162.1 21.7967 157.008 22.8317 152.426C22.88 152.206 23.0663 152.117 23.2112 152.234L28.8002 156.864C29.0417 157.064 29.3039 156.685 29.1452 156.382L24.2186 147.218C24.1686 147.121 24.1563 147.008 24.1841 146.902C24.9282 143.982 25.8499 141.11 26.9441 138.302C26.9519 138.268 26.9672 138.237 26.9889 138.21C27.0106 138.184 27.0381 138.162 27.0694 138.148C27.1006 138.133 27.1347 138.126 27.1692 138.126C27.2037 138.127 27.2376 138.135 27.2684 138.15L31.1531 140.421C31.3532 140.538 31.5671 140.29 31.4981 140.015L30.2837 135.13C30.2837 135.041 30.1733 134.683 30.0767 134.366L29.7593 133.107C30.6632 132 31.5878 131.394 32.5193 131.394C33.4508 131.394 34.5134 132.082 35.4725 133.334L34.0235 140.015C33.9614 140.29 34.1684 140.538 34.3685 140.421L37.8668 138.357C37.8974 138.34 37.9315 138.33 37.9664 138.329C38.0013 138.327 38.0361 138.334 38.0682 138.348C38.1002 138.362 38.1285 138.383 38.1511 138.409C38.1736 138.436 38.1896 138.467 38.198 138.501C39.3204 141.436 40.2674 144.434 41.0339 147.48C41.0721 147.579 41.0721 147.69 41.0339 147.789L36.4316 156.355C36.266 156.658 36.5351 157.043 36.7697 156.836L41.9654 152.592C42.1103 152.475 42.2966 152.592 42.3449 152.784C43.3799 157.428 44.339 162.588 45.2084 168.003C45.2189 168.057 45.2182 168.114 45.2063 168.168C45.1945 168.222 45.1717 168.274 45.1394 168.319L41.2064 173.541C41.0132 173.803 41.2064 174.229 41.4893 174.092L45.4982 171.89C45.6431 171.807 45.8156 171.89 45.8432 172.138C46.4918 176.493 47.0783 180.972 47.5958 185.444C47.6061 185.503 47.6021 185.564 47.5841 185.621C47.5661 185.679 47.5346 185.731 47.4923 185.774L40.7165 191.911C40.4888 192.117 40.6406 192.599 40.9097 192.523L47.9132 190.734C48.0512 190.693 48.1892 190.831 48.2099 191.023C48.8999 197.903 49.4795 204.673 49.8245 210.824C49.8326 210.888 49.8227 210.952 49.7959 211.011C49.769 211.069 49.7264 211.119 49.6727 211.154L41.6411 215.681C41.3582 215.832 41.4824 216.369 41.7791 216.328L49.7279 214.656C49.8728 214.656 50.0108 214.773 50.0246 214.972C50.1764 218.509 50.2592 221.784 50.2592 224.687C50.2592 226.538 50.2247 228.306 50.1626 230.005C50.164 230.068 50.148 230.131 50.1164 230.185C50.0848 230.24 50.0387 230.285 49.9832 230.315L41.5859 233.81C41.3168 233.92 41.3651 234.45 41.648 234.498L49.5899 235.186C49.7348 235.186 49.8383 235.372 49.8245 235.564C49.4733 240.445 48.6012 245.275 47.2232 249.971C47.218 250.006 47.2052 250.039 47.1856 250.069C47.166 250.098 47.1401 250.123 47.1098 250.142C47.0795 250.16 47.0455 250.172 47.0103 250.175C46.975 250.179 46.9393 250.175 46.9058 250.164L42.0344 248.065C41.7791 247.955 41.5859 248.361 41.7653 248.623L45.5327 253.961C45.5738 254.02 45.5987 254.088 45.6047 254.16C45.6108 254.231 45.5978 254.303 45.5672 254.367C42.3311 261.474 37.6943 264.55 32.54 264.55C27.4892 264.55 22.9352 261.591 19.706 254.787C19.6716 254.722 19.6536 254.65 19.6536 254.577C19.6536 254.504 19.6716 254.432 19.706 254.367L23.7632 248.623C23.9426 248.361 23.7632 247.935 23.501 248.065L18.2018 250.349C18.0776 250.404 17.9396 250.349 17.8844 250.157C16.4756 245.416 15.5849 240.537 15.2279 235.606C15.213 235.524 15.2296 235.439 15.2743 235.369C15.3191 235.299 15.3888 235.248 15.4694 235.227L23.8874 234.477C24.1703 234.477 24.2117 233.927 23.9426 233.789L15.1658 230.129C15.1211 230.106 15.0823 230.073 15.0524 230.032C15.0225 229.992 15.0023 229.945 14.9933 229.895L14.8691 229.276C14.8691 229.276 14.8691 229.228 14.8691 229.2C14.8277 227.742 14.8001 226.235 14.8001 224.666C14.8208 221.729 14.9036 218.419 15.0623 214.842Z" fill="#61C0CD"/>
<path opacity="0.4" d="M15.0623 214.842C15.0623 214.642 15.2072 214.491 15.359 214.525L23.7977 216.328C24.0944 216.39 24.2117 215.832 23.9357 215.681L15.4349 210.865C15.3835 210.826 15.3432 210.775 15.3178 210.716C15.2924 210.657 15.2828 210.592 15.29 210.528C15.6419 204.419 16.187 197.711 16.8977 190.872C16.8977 190.679 17.0564 190.548 17.2013 190.583L24.6671 192.496C24.9431 192.564 25.088 192.09 24.8603 191.883L17.6567 185.354C17.6145 185.311 17.5826 185.259 17.5635 185.202C17.5443 185.144 17.5385 185.084 17.5463 185.024C17.9327 181.721 18.3605 178.419 18.8159 175.165L19.4024 171.911C19.4369 171.704 19.6025 171.594 19.7474 171.677L24.0944 174.064C24.3497 174.208 24.5705 173.775 24.3704 173.514L20.0441 167.762C19.9827 167.671 19.958 167.561 19.9751 167.452C20.8445 162.1 21.7967 157.008 22.8317 152.426C22.88 152.206 23.0663 152.117 23.2112 152.234L28.8002 156.864C29.0417 157.064 29.3039 156.685 29.1452 156.382L24.2186 147.218C24.1686 147.121 24.1563 147.008 24.1841 146.902C24.9282 143.982 25.8499 141.11 26.9441 138.302C26.9519 138.268 26.9672 138.237 26.9889 138.21C27.0106 138.184 27.0381 138.162 27.0694 138.148C27.1006 138.133 27.1347 138.126 27.1692 138.126C27.2037 138.127 27.2376 138.135 27.2684 138.15L31.1531 140.421C31.3532 140.538 31.5671 140.29 31.4981 140.015L30.2837 135.13C30.2837 135.041 30.1733 134.683 30.0767 134.366L29.7593 133.107C30.6632 132 31.5878 131.394 32.5193 131.394C33.4508 131.394 34.5134 132.082 35.4725 133.334L34.0235 140.015C33.9614 140.29 34.1684 140.538 34.3685 140.421L37.8668 138.357C37.8974 138.34 37.9315 138.33 37.9664 138.329C38.0013 138.327 38.0361 138.334 38.0682 138.348C38.1002 138.362 38.1285 138.383 38.1511 138.409C38.1736 138.436 38.1896 138.467 38.198 138.501C39.3204 141.436 40.2674 144.434 41.0339 147.48C41.0721 147.579 41.0721 147.69 41.0339 147.789L36.4316 156.355C36.266 156.658 36.5351 157.043 36.7697 156.836L41.9654 152.592C42.1103 152.475 42.2966 152.592 42.3449 152.784C43.3799 157.428 44.339 162.588 45.2084 168.003C45.2189 168.057 45.2182 168.114 45.2063 168.168C45.1945 168.222 45.1717 168.274 45.1394 168.319L41.2064 173.541C41.0132 173.803 41.2064 174.229 41.4893 174.092L45.4982 171.89C45.6431 171.807 45.8156 171.89 45.8432 172.138C46.4918 176.493 47.0783 180.972 47.5958 185.444C47.6061 185.503 47.6021 185.564 47.5841 185.621C47.5661 185.679 47.5346 185.731 47.4923 185.774L40.7165 191.911C40.4888 192.117 40.6406 192.599 40.9097 192.523L47.9132 190.734C48.0512 190.693 48.1892 190.831 48.2099 191.023C48.8999 197.903 49.4795 204.673 49.8245 210.824C49.8326 210.888 49.8227 210.952 49.7959 211.011C49.769 211.069 49.7264 211.119 49.6727 211.154L41.6411 215.681C41.3582 215.832 41.4824 216.369 41.7791 216.328L49.7279 214.656C49.8728 214.656 50.0108 214.773 50.0246 214.972C50.1764 218.509 50.2592 221.784 50.2592 224.687C50.2592 226.538 50.2247 228.306 50.1626 230.005C50.164 230.068 50.148 230.131 50.1164 230.185C50.0848 230.24 50.0387 230.285 49.9832 230.315L41.5859 233.81C41.3168 233.92 41.3651 234.45 41.648 234.498L49.5899 235.186C49.7348 235.186 49.8383 235.372 49.8245 235.564C49.4733 240.445 48.6012 245.275 47.2232 249.971C47.218 250.006 47.2052 250.039 47.1856 250.069C47.166 250.098 47.1401 250.123 47.1098 250.142C47.0795 250.16 47.0455 250.172 47.0103 250.175C46.975 250.179 46.9393 250.175 46.9058 250.164L42.0344 248.065C41.7791 247.955 41.5859 248.361 41.7653 248.623L45.5327 253.961C45.5738 254.02 45.5987 254.088 45.6047 254.16C45.6108 254.231 45.5978 254.303 45.5672 254.367C42.3311 261.474 37.6943 264.55 32.54 264.55C27.4892 264.55 22.9352 261.591 19.706 254.787C19.6716 254.722 19.6536 254.65 19.6536 254.577C19.6536 254.504 19.6716 254.432 19.706 254.367L23.7632 248.623C23.9426 248.361 23.7632 247.935 23.501 248.065L18.2018 250.349C18.0776 250.404 17.9396 250.349 17.8844 250.157C16.4756 245.416 15.5849 240.537 15.2279 235.606C15.213 235.524 15.2296 235.439 15.2743 235.369C15.3191 235.299 15.3888 235.248 15.4694 235.227L23.8874 234.477C24.1703 234.477 24.2117 233.927 23.9426 233.789L15.1658 230.129C15.1211 230.106 15.0823 230.073 15.0524 230.032C15.0225 229.992 15.0023 229.945 14.9933 229.895L14.8691 229.276C14.8691 229.276 14.8691 229.228 14.8691 229.2C14.8277 227.742 14.8001 226.235 14.8001 224.666C14.8208 221.729 14.9036 218.419 15.0623 214.842Z" fill="#F1EEFF"/>
<path d="M31.8362 238.97L32.3813 208.251L22.9076 200.428L32.4503 204.295L32.6228 194.25L32.7056 194.415L32.6504 192.943L32.9057 178.508L25.0604 171.291L32.7539 175.894L32.9264 177.421L33.2369 159.533L33.4094 163.063L34.2374 189.792L34.5962 189.083L40.751 185.093L34.2857 191.36L35.3414 225.251L45.0566 222.203L35.4518 228.794L36.1694 252.069L39.8264 251.34L36.2867 255.757L36.68 268.444L37.163 295.008H30.8495L31.7879 241.756L24.1427 239.995L31.8362 238.97Z" fill="#3C2F71"/>
<path opacity="0.5" d="M31.8362 238.97L32.3813 208.251L22.9076 200.428L32.4503 204.295L32.6228 194.25L32.7056 194.415L32.6504 192.943L32.9057 178.508L25.0604 171.291L32.7539 175.894L32.9264 177.421L33.2369 159.533L33.4094 163.063L34.2374 189.792L34.5962 189.083L40.751 185.093L34.2857 191.36L35.3414 225.251L45.0566 222.203L35.4518 228.794L36.1694 252.069L39.8264 251.34L36.2867 255.757L36.68 268.444L37.163 295.008H30.8495L31.7879 241.756L24.1427 239.995L31.8362 238.97Z" fill="#F1EEFF"/>
<path d="M76.9691 262.988H82.6202L82.703 263.112C83.1866 263.032 83.6757 262.991 84.1658 262.988C91.0658 262.988 96.641 270.157 96.641 278.998C96.641 287.839 91.052 295.008 84.1658 295.008C83.669 295.008 79.5773 294.959 79.0943 294.891L82.6202 295.008H76.9691C70.0691 295.008 64.4939 287.839 64.4939 278.998C64.4939 270.157 70.076 262.988 76.9691 262.988Z" fill="#3C2F71" stroke="#3C2F71" stroke-linecap="round" stroke-linejoin="round"/>
<path d="M192.744 262.988H198.402L198.478 263.112C198.962 263.032 199.451 262.991 199.941 262.988C206.841 262.988 212.423 270.157 212.423 278.998C212.423 287.839 206.834 295.008 199.941 295.008C199.451 295.003 198.962 294.964 198.478 294.891L198.402 295.008H192.744C185.844 295.008 180.269 287.839 180.269 278.998C180.269 270.157 185.858 262.988 192.744 262.988Z" fill="#3C2F71" stroke="#3C2F71" stroke-linecap="round" stroke-linejoin="round"/>
<path d="M23.1836 263.463H25.8953L28.3241 246.476C28.4663 245.48 28.9625 244.568 29.7224 243.907C30.4823 243.245 31.4552 242.877 32.4641 242.871H47.72L72.4082 216.727C73.7291 215.328 75.3233 214.213 77.0926 213.451C78.8619 212.689 80.7688 212.296 82.6961 212.296H148.108C149.52 212.297 150.916 212.582 152.215 213.134C153.513 213.686 154.686 214.494 155.664 215.509L268.058 262.816V282.768H99.5459L57.2558 282.472L25.8953 280.408V280.264H23.3147C23.042 280.264 22.7805 280.156 22.5877 279.963C22.3949 279.771 22.2866 279.51 22.2866 279.239V264.357C22.2866 264.12 22.3811 263.892 22.5493 263.725C22.7175 263.557 22.9457 263.463 23.1836 263.463Z" fill="#61C0CD" stroke="#3C2F71" stroke-linecap="round" stroke-linejoin="round"/>
<path d="M66.9434 215.846H56.3312" stroke="#3C2F71" stroke-linecap="round" stroke-linejoin="round"/>
<path d="M60.5747 225.017H17.7878" stroke="#3C2F71" stroke-linecap="round" stroke-linejoin="round"/>
<path d="M24.5084 250.404H14.255" stroke="#3C2F71" stroke-linecap="round" stroke-linejoin="round"/>
<path d="M19.5542 278.963H6.4925" stroke="#3C2F71" stroke-linecap="round" stroke-linejoin="round"/>
<path d="M71.0558 279.748V282.617L57.2558 282.52L25.8953 280.456V280.312H23.3147C23.1231 280.31 22.9358 280.254 22.7738 280.152C22.6118 280.05 22.4813 279.906 22.397 279.734L71.0558 279.748Z" fill="#3C2F71" stroke="#3C2F71" stroke-linecap="round" stroke-linejoin="round"/>
<path d="M57.2558 282.52C57.1199 282.516 56.9861 282.486 56.8621 282.43C56.7381 282.374 56.6263 282.295 56.5331 282.196C56.4398 282.097 56.367 281.981 56.3188 281.855C56.2705 281.728 56.2478 281.593 56.2519 281.457C56.2559 281.322 56.2868 281.188 56.3425 281.065C56.3983 280.941 56.478 280.83 56.577 280.737C56.676 280.644 56.7924 280.571 56.9195 280.523C57.0466 280.475 57.182 280.452 57.3179 280.456H73.1879L131.838 212.303H148.108C149.52 212.304 150.916 212.589 152.215 213.141C153.513 213.693 154.686 214.501 155.664 215.516L268.058 262.816V282.768H99.5459L57.2558 282.52Z" fill="#3C2F71" stroke="#3C2F71" stroke-linecap="round" stroke-linejoin="round"/>
<path d="M241.796 262.988H247.454L251.16 268.416C253.196 271.573 254.279 275.248 254.279 279.001C254.279 282.755 253.196 286.429 251.16 289.586L247.454 295.008H241.796C234.896 295.008 229.321 287.839 229.321 278.998C229.321 270.157 234.903 262.988 241.796 262.988Z" fill="#3C2F71" stroke="#3C2F71" stroke-linecap="round" stroke-linejoin="round"/>
<path d="M248.993 295.008C242.103 295.008 236.518 287.84 236.518 278.998C236.518 270.156 242.103 262.988 248.993 262.988C255.883 262.988 261.468 270.156 261.468 278.998C261.468 287.84 255.883 295.008 248.993 295.008Z" fill="#AFA3DE" stroke="#3C2F71" stroke-linecap="round" stroke-linejoin="round"/>
<path d="M248.993 291.767C243.494 291.767 239.036 286.05 239.036 278.998C239.036 271.945 243.494 266.228 248.993 266.228C254.492 266.228 258.95 271.945 258.95 278.998C258.95 286.05 254.492 291.767 248.993 291.767Z" fill="#F1EEFF" stroke="#3C2F71" stroke-linecap="round" stroke-linejoin="round"/>
<path d="M246.889 278.998C246.889 280.491 247.834 281.702 248.959 281.702C250.083 281.702 251.029 280.491 251.029 278.998C251.029 277.505 250.083 276.301 248.959 276.301C247.834 276.301 246.889 277.512 246.889 278.998Z" fill="#F1EEFF" stroke="#3C2F71" stroke-linecap="round" stroke-linejoin="round"/>
<path d="M115.858 262.988H121.509L125.214 268.416C127.25 271.573 128.333 275.248 128.333 279.001C128.333 282.755 127.25 286.429 125.214 289.586L121.509 295.008H115.858C108.958 295.008 103.375 287.839 103.375 278.998C103.375 270.157 108.964 262.988 115.858 262.988Z" fill="#3C2F71" stroke="#3C2F71" stroke-linecap="round" stroke-linejoin="round"/>
<path d="M123.047 295.008C116.157 295.008 110.572 287.84 110.572 278.998C110.572 270.156 116.157 262.988 123.047 262.988C129.937 262.988 135.523 270.156 135.523 278.998C135.523 287.84 129.937 295.008 123.047 295.008Z" fill="#AFA3DE" stroke="#3C2F71" stroke-linecap="round" stroke-linejoin="round"/>
<path d="M123.047 291.767C117.548 291.767 113.091 286.05 113.091 278.998C113.091 271.945 117.548 266.228 123.047 266.228C128.546 266.228 133.004 271.945 133.004 278.998C133.004 286.05 128.546 291.767 123.047 291.767Z" fill="#F1EEFF" stroke="#3C2F71" stroke-linecap="round" stroke-linejoin="round"/>
<path d="M120.95 278.998C120.95 280.491 121.888 281.702 123.02 281.702C124.151 281.702 125.124 280.491 125.124 278.998C125.124 277.505 124.186 276.301 123.02 276.301C121.854 276.301 120.95 277.512 120.95 278.998Z" fill="#F1EEFF" stroke="#3C2F71" stroke-linecap="round" stroke-linejoin="round"/>
<path d="M72.3806 216.72C72.5807 216.507 72.8015 216.314 73.0154 216.108H123.993V241.227H49.2173L72.3806 216.72Z" fill="#3C2F71" stroke="#3C2F71" stroke-linecap="round" stroke-linejoin="round"/>
<path d="M66.5225 263.463H69.4964L72.4427 242.864H91.2935L115.975 216.72C117.298 215.321 118.893 214.207 120.663 213.445C122.434 212.683 124.341 212.29 126.27 212.289H186.341C187.752 212.291 189.149 212.576 190.447 213.128C191.745 213.68 192.919 214.488 193.897 215.502L232.261 241.082L267.761 256.383L273.281 263.82C274.634 265.654 275.36 267.873 275.351 270.15V282.816H264.228V278.599C264.228 268.279 256.693 259.906 247.413 259.906C239.133 259.906 233.992 266.6 232.702 275.682L231.688 282.816H138.11V278.599C138.11 268.279 133.86 259.906 122.44 259.906C112.27 259.906 108.64 266.6 107.046 275.682L105.853 282.52L69.4688 280.456V280.312H66.4949L66.5225 263.463Z" fill="#61C0CD" stroke="#3C2F71" stroke-linecap="round" stroke-linejoin="round"/>
<path d="M168.608 246.531H175.273V249.194H168.608V246.531Z" fill="#3C2F71" stroke="#3C2F71" stroke-linecap="round" stroke-linejoin="round"/>
<path d="M193.572 219.3L226.513 241.11H164.944V216.431H186.748C188.02 216.431 189.279 216.685 190.451 217.177C191.623 217.67 192.684 218.392 193.572 219.3Z" fill="#3C2F71" stroke="#3C2F71" stroke-linecap="round" stroke-linejoin="round"/>
<path d="M200.058 241.013C200.124 240.675 200.159 240.332 200.162 239.988C200.113 238.664 199.551 237.41 198.594 236.491C197.638 235.571 196.36 235.057 195.032 235.057C193.703 235.057 192.425 235.571 191.469 236.491C190.512 237.41 189.95 238.664 189.901 239.988C189.901 240.333 189.935 240.676 190.005 241.013H187.155C187.109 240.673 187.083 240.331 187.079 239.988C187.199 237.97 188.087 236.074 189.562 234.688C191.037 233.301 192.987 232.529 195.014 232.529C197.041 232.529 198.992 233.301 200.467 234.688C201.942 236.074 202.83 237.97 202.949 239.988C202.947 240.331 202.924 240.673 202.88 241.013H200.058Z" fill="#ABA4C7" stroke="#3C2F71" stroke-linecap="round" stroke-linejoin="round"/>
<path d="M179.13 224.529L181.442 227.597L180.159 228.361L178.365 233.727L174.77 232.964L174.514 235.007L169.132 232.964L171.437 229.641L174.514 229.386L179.13 224.529Z" fill="#F1EEFF" stroke="#3C2F71" stroke-linecap="round" stroke-linejoin="round"/>
<path d="M176.826 218.13L178.13 219.926C178.13 219.926 188.383 224.267 185.306 225.038C182.229 225.808 172.996 225.547 170.947 225.547C168.898 225.547 165.048 225.802 165.048 225.802L169.188 221.969L174.314 220.944L176.826 218.13Z" fill="#F1EEFF" stroke="#3C2F71" stroke-linecap="round" stroke-linejoin="round"/>
<path d="M178.62 241.144L180.89 243.958C180.89 243.958 189.101 239.61 190.895 239.355C192.689 239.101 195.228 241.254 195.228 241.254C193.829 241.122 192.422 241.096 191.019 241.178C188.673 241.254 190.86 242.63 180.669 251.375C179.889 252.063 178.751 251.657 178.109 250.859C177.468 250.06 173.231 243.187 173.231 243.187L178.62 241.144Z" fill="#F1EEFF" stroke="#3C2F71" stroke-linecap="round" stroke-linejoin="round"/>
<path d="M173.238 233.473L167.608 231.168L166.4 233.06L171.23 235.296L173.238 233.473Z" fill="#F1EEFF" stroke="#3C2F71" stroke-linecap="round" stroke-linejoin="round"/>
<path d="M169.112 237.745C169.034 237.203 169.092 236.65 169.28 236.135C169.468 235.621 169.78 235.16 170.188 234.794C171.078 233.996 172.258 233.198 173.231 233.473C175.032 233.989 181.339 243.992 181.339 243.992L172.838 249.572L169.112 237.745Z" fill="#F1EEFF" stroke="#3C2F71" stroke-linecap="round" stroke-linejoin="round"/>
<path d="M193.524 231.319L196.443 232.434L194.083 233.122L193.303 234.801L194.759 235.248C194.759 235.248 193.634 236.362 193.186 236.362C192.545 236.29 191.909 236.177 191.281 236.025L186.348 241.172H180.028L189.515 234.608L191.93 231.767L193.524 231.319Z" fill="#F1EEFF" stroke="#3C2F71" stroke-linecap="round" stroke-linejoin="round"/>
<path d="M118.031 220.449L104.024 234.732C103.56 235.21 103.229 235.8 103.065 236.445C102.927 236.998 102.917 237.576 103.035 238.133C103.154 238.691 103.399 239.214 103.75 239.664C104.102 240.113 104.552 240.477 105.065 240.728C105.579 240.978 106.143 241.109 106.715 241.11H160.818V216.431H127.608C125.824 216.432 124.058 216.788 122.414 217.478C120.769 218.168 119.279 219.178 118.031 220.449Z" fill="#3C2F71" stroke="#3C2F71" stroke-linecap="round" stroke-linejoin="round"/>
<path d="M131.155 216.431H136.592L156.119 241.11H150.682L131.155 216.431Z" fill="#F1EEFF" stroke="#3C2F71" stroke-linecap="round" stroke-linejoin="round"/>
<path d="M160.818 218.179V237.883L143.844 216.431H159.438L160.818 218.179Z" fill="#F1EEFF" stroke="#3C2F71" stroke-linecap="round" stroke-linejoin="round"/>
<path d="M72.4427 242.864H32.4917C31.4829 242.87 30.5099 243.238 29.75 243.9C28.9901 244.561 28.4939 245.473 28.3517 246.469L25.9229 263.456H69.4964L72.4427 242.864Z" fill="#61C0CD" stroke="#3C2F71" stroke-linecap="round" stroke-linejoin="round"/>
<path d="M34.5203 252.152H53.4677V259.913H34.5203V252.152Z" fill="#F1EEFF" stroke="#3C2F71" stroke-linecap="round" stroke-linejoin="round"/>
<path d="M23.8115 266.634H104.99" stroke="#3C2F71" stroke-width="2" stroke-linecap="round" stroke-linejoin="round"/>
<path d="M141.27 266.634H231.232" stroke="#3C2F71" stroke-width="2" stroke-linecap="round" stroke-linejoin="round"/>
<path d="M261.103 266.634H271.397" stroke="#3C2F71" stroke-width="2" stroke-linecap="round" stroke-linejoin="round"/>
<path d="M56.7383 252.283H74.63C75.458 252.282 76.2696 252.512 76.9741 252.946C77.6785 253.38 78.2478 254.001 78.6182 254.739L81.6128 260.711C81.7491 260.985 81.813 261.289 81.7984 261.594C81.7839 261.899 81.6914 262.196 81.5297 262.456C81.368 262.716 81.1424 262.93 80.8744 263.078C80.6064 263.227 80.3048 263.305 79.9982 263.304H56.7314L56.7383 252.283Z" fill="#F1EEFF" stroke="#3C2F71" stroke-linecap="round" stroke-linejoin="round"/>
<path d="M56.7383 252.283H71.1593L69.5861 263.304H56.7383V252.283Z" fill="#3C2F71" stroke="#3C2F71" stroke-linecap="round" stroke-linejoin="round"/>
<path d="M27.5582 252.283H31.9259L31.988 263.304H25.985L27.5582 252.283Z" fill="#3C2F71" stroke="#3C2F71" stroke-linecap="round" stroke-linejoin="round"/>
<path d="M222.594 235.963H231.322C232.084 235.963 232.702 236.579 232.702 237.339V244.281C232.702 245.041 232.084 245.657 231.322 245.657H222.594C221.831 245.657 221.214 245.041 221.214 244.281V237.339C221.214 236.579 221.831 235.963 222.594 235.963Z" fill="#3C2F71" stroke="#3C2F71" stroke-linecap="round" stroke-linejoin="round"/>
<path d="M163.764 243.896V277.388" stroke="#3C2F71" stroke-linecap="round" stroke-linejoin="round"/>
<path d="M238.45 258.881C238.45 258.881 230.356 263.428 229.321 278.998H143.437" stroke="#3C2F71" stroke-linecap="round" stroke-linejoin="round"/>
<path d="M102.782 265.485C102.782 265.485 107.012 254.477 121.177 254.477C131.051 254.477 135.771 259.651 138.138 263.731" stroke="#3C2F71" stroke-linecap="round" stroke-linejoin="round"/>
<path d="M86.0702 209.675H179.538V212.035H86.0702V209.675Z" fill="#3C2F71" stroke="#3C2F71" stroke-linecap="round" stroke-linejoin="round"/>
<path d="M141.836 195.117C141.836 195.117 157.223 195.454 166.159 195.454C175.094 195.454 176.329 194.078 176.081 195.798C175.832 197.518 175.584 209.434 175.584 209.434L141.588 209.771L141.836 195.117Z" fill="#F1EEFF" stroke="#3C2F71" stroke-linecap="round" stroke-linejoin="round"/>
<path d="M145.252 198.426H148.584V203.187H145.252V198.426Z" fill="#F1EEFF" stroke="#3C2F71" stroke-linecap="round" stroke-linejoin="round"/>
<path d="M170.499 198.426H173.831V203.187H170.499V198.426Z" fill="#F1EEFF" stroke="#3C2F71" stroke-linecap="round" stroke-linejoin="round"/>
<path d="M141.836 195.117C141.836 195.117 124.469 195.805 118.762 195.117C113.056 194.429 112.311 194.429 112.311 195.805C112.311 197.181 112.063 210.122 112.063 210.122L141.56 209.771L141.836 195.117Z" fill="#3C2F71" stroke="#3C2F71" stroke-linecap="round" stroke-linejoin="round"/>
<path d="M175.777 201.192L141.926 200.999" stroke="#3C2F71" stroke-linecap="round" stroke-linejoin="round"/>
<path d="M140.815 201.384H112.649" stroke="#F1EEFF" stroke-linecap="round" stroke-linejoin="round"/>
<path d="M157.182 200.807H165.786V204.047H157.182V200.807Z" fill="#3C2F71" stroke="#3C2F71" stroke-linecap="round" stroke-linejoin="round"/>
<path d="M77.5763 175.048C78.7286 174.862 79.9085 174.724 81.0884 174.621C96.3581 173.293 111.448 169.805 126.835 169.523C139.407 169.398 151.958 170.551 164.296 172.963C174.949 174.958 186.417 175.447 196.18 180.614C200.721 183.015 210.139 196.802 200.32 198.976C196.284 199.871 194.035 195.392 185.962 195.392C177.889 195.392 74.4368 195.681 71.7458 195.234C69.0548 194.787 65.9153 201.047 61.8719 201.942C57.4145 202.926 58.5668 193.837 58.8083 191.622C60.002 180.82 68.1992 176.52 77.5763 175.048Z" fill="#AFA3DE" stroke="#3C2F71" stroke-linecap="round" stroke-linejoin="round"/>
<path d="M73.5467 176.892C73.5467 176.892 66.8192 178.233 63.6728 182.705C60.5264 187.177 60.0848 191.209 60.9818 197.47" stroke="#3C2F71" stroke-linecap="round" stroke-linejoin="round"/>
<path d="M170.154 208.932C170.154 208.932 174.197 176.761 162.06 171.89" stroke="#3C2F71" stroke-linecap="round" stroke-linejoin="round"/>
<path d="M134.584 209.2C134.584 209.2 136.551 176.74 121.474 169.248" stroke="#3C2F71" stroke-linecap="round" stroke-linejoin="round"/>
<path d="M140.491 209.2C140.491 209.2 141.181 177.291 116.527 169.523" stroke="#3C2F71" stroke-linecap="round" stroke-linejoin="round"/>
<path d="M157.678 171.353C157.678 171.353 170.485 178.653 173.859 209.193" stroke="#3C2F71" stroke-linecap="round" stroke-linejoin="round"/>
<path d="M90.4931 191.003H131.465V209.881H90.4931V191.003Z" fill="#AFA3DE" stroke="#3C2F71" stroke-linecap="round" stroke-linejoin="round"/>
<path d="M90.4931 191.003H105.08V209.881H90.4931V191.003Z" fill="#DFD7FF" stroke="#3C2F71" stroke-linecap="round" stroke-linejoin="round"/>
<path d="M131.465 191.003L128.94 187.955C128.368 187.265 127.65 186.711 126.837 186.332C126.025 185.952 125.138 185.757 124.241 185.76H97.8899C97.0262 185.761 96.1726 185.945 95.3861 186.301C94.5996 186.657 93.8983 187.176 93.329 187.824L90.4862 191.03L131.465 191.003Z" fill="#F1EEFF" stroke="#3C2F71" stroke-linecap="round" stroke-linejoin="round"/>
<path d="M97.4621 185.843H100.657C101.282 185.843 101.893 186.024 102.417 186.363C102.941 186.703 103.356 187.186 103.61 187.755L105.1 191.003" stroke="#3C2F71" stroke-linecap="round" stroke-linejoin="round"/>
<path d="M90.4931 191.003H131.465V194.848H90.4931V191.003Z" fill="#F1EEFF" stroke="#3C2F71" stroke-linecap="round" stroke-linejoin="round"/>
<path d="M90.4862 191.003H105.411V194.848H90.4862V191.003Z" fill="#DDF9FD" stroke="#3C2F71" stroke-linecap="round" stroke-linejoin="round"/>
<path d="M129.409 194.862L127.539 196.039H124.676L122.806 195.055L129.409 194.862Z" fill="#3C2F71" stroke="#3C2F71" stroke-linecap="round" stroke-linejoin="round"/>
<path d="M115.119 194.862L113.242 196.039H110.386L108.516 195.055L115.119 194.862Z" fill="#3C2F71" stroke="#3C2F71" stroke-linecap="round" stroke-linejoin="round"/>
<path d="M126.035 210.026L116.72 185.815C116.72 185.815 115.582 185.127 112.863 185.815C112.863 185.815 115.133 186.035 116.037 187.397C116.941 188.76 123.979 210.026 123.979 210.026" stroke="#3C2F71" stroke-linecap="round" stroke-linejoin="round"/>
<path d="M0.0065155 295.008H-6.80378" stroke="#3C2F71" stroke-linecap="round" stroke-linejoin="round"/>
<path d="M294.05 295.008H5.76799" stroke="#3C2F71" stroke-linecap="round" stroke-linejoin="round"/>
<path d="M327.86 295.008H300.26" stroke="#3C2F71" stroke-linecap="round" stroke-linejoin="round"/>
</svg>
